<?xml version="1.0" encoding="UTF-8"?>
<svg id="Layer_2" xmlns="http://www.w3.org/2000/svg" viewBox="0 0 846.13 201.68">
  <defs>
    <style>
      .cls-1 {
        fill: #1976d2;
      }

      .cls-1, .cls-2 {
        stroke-width: 0px;
      }
    </style>
  </defs>
  <g id="Layer_1-2">
    <g>
      <g>
        <path class="cls-1" d="M167.15,172.71c-11.7-7.92-20.54-21.29-20.54-35.43v-29.33c0-24.62-11.59-35.45-31.84-35.45-15.13,0-27.71,8.86-35.57,14.97-2.95-5.91-9.04-14.97-24.76-14.97s-26.73,8.86-31.25,13.2v-10.44H0v99.46h23.19v-70.71c3.34-3.94,12.78-11.03,21.81-11.03,10.61,0,16.71,5.12,16.71,17.73v64.01h23.19v-70.71c4.13-4.73,12.97-11.03,22.99-11.03s15.53,5.91,15.53,18.71v31.14s0,0,0,0c0,0,0,0,0,0h0c0,31.87,23.19,31.88,23.19,31.88,0,0,2.18-.02,2.82-.02,11.3,0,17.8-1.94,17.72-2Z"/>
        <g>
          <path class="cls-2" d="M284.92,146.25c-.18,0-.37,0-.55,0-7.86.05-14.23,6.41-14.28,14.28.39,7.72,6.56,13.89,14.28,14.27,7.81-.18,14.09-6.46,14.27-14.27.15-7.73-5.99-14.12-13.72-14.28Z"/>
          <path class="cls-2" d="M234.05,78.55c-6.67-4.45-14.55-6.74-22.57-6.56-29.9,0-50.93,21.41-50.93,52.66,0,33.17,26.23,50.35,53.63,50.35,15.07.06,29.86-4.15,42.63-12.15V30h-22.76v48.55ZM206.46,156.09c-8.3,0-17.35-3.47-21.99-8.68v-51.51c6.02-3.5,12.9-5.24,19.87-5.01,15.82,0,29.71,12.54,29.71,31.44,0,20.07-10.8,33.76-27.59,33.76Z"/>
        </g>
      </g>
      <g>
        <g>
          <path class="cls-2" d="M467.35,95.99c-.2,0-.4,0-.6,0-4.24.19-7.53,3.79-7.34,8.03h.01c0,.11,0,.22,0,.33.09,4.41,3.74,7.91,8.14,7.82,4.41-.09,7.91-3.74,7.82-8.14.01-.26.01-.51,0-.77-.21-4.22-3.81-7.48-8.03-7.27Z"/>
          <path class="cls-2" d="M674.76,165.45h0c-9.85-1.01-15.24-6.75-15.92-13.05v-33.05h22.93v-10.22h-22.93v-12.99h-12.93v52.67h.03c.36,16.59,12.16,27.33,29.66,27.33,2.62-.02,5.24-.3,7.8-.84-3.69-2.47-6.68-5.86-8.64-9.85Z"/>
          <rect class="cls-2" x="461.1" y="121.24" width="12.47" height="53.38"/>
          <path class="cls-2" d="M501.28,129.48v-8.24h-12.48v53.38h12.48v-29.69c0-6.66,3.49-13.42,9.51-13.42,2.57.06,5.06.94,7.08,2.53l4.54-11.62c-2.85-1.77-6.16-2.69-9.52-2.65-6.24,0-10.46,7.19-11.62,9.72Z"/>
          <path class="cls-2" d="M554.01,119.76c-16.7,0-27.9,12.05-27.9,28.54s11.84,27.9,29.49,27.9c8.08.2,16-2.29,22.51-7.08l-3.91-8.88c-4.7,3.69-10.51,5.67-16.49,5.6-11.74,0-17.97-6.34-18.71-13.21h41.02v-5.18c0-14.78-8.67-27.69-26-27.69ZM539.1,142.59c.65-7.55,7.11-13.27,14.69-13,.18,0,.36,0,.54,0,7.09.09,12.77,5.91,12.68,13h-27.9Z"/>
          <path class="cls-2" d="M618.04,165.97c-.27,0-.54-.02-.81-.03-9.26-.6-16.27-8.58-15.68-17.84,0-11.53,7.93-17.87,16.49-17.87,4.78.12,9.37,1.96,12.91,5.18l4.75-9.41c-5.18-4.07-11.59-6.27-18.18-6.24-15.39-.21-28.11,11.95-28.6,27.34-.49,15.58,11.74,28.61,27.33,29.1,7.76.36,15.34-2.42,21.03-7.72l-4.02-8.64c-4,4.07-9.52,6.29-15.22,6.13Z"/>
          <path class="cls-2" d="M712.11,119.77c-15.58-.35-28.5,12-28.85,27.59-.35,15.58,12,28.5,27.59,28.85.21,0,.43,0,.64,0,15.56.02,28.2-12.58,28.22-28.14.05-15.37-12.22-27.96-27.59-28.3ZM726.49,148.09c0,10.89-6.24,17.76-15.75,17.76-.06,0-.11,0-.17,0-9.12-.52-16.1-8.33-15.58-17.46,0-10.99,6.87-18.18,16.06-18.18,8.46,0,15.43,7.2,15.43,17.87h0Z"/>
          <path class="cls-2" d="M763.9,129.48v-8.24h-12.48v53.38h12.48v-29.69c0-6.66,3.49-13.42,9.51-13.42,2.57.06,5.06.94,7.08,2.53l4.54-11.62c-2.85-1.77-6.16-2.69-9.52-2.65-6.24,0-10.46,7.19-11.62,9.72Z"/>
          <polygon class="cls-2" points="831.76 121.23 816 154.96 800.26 121.23 786.41 121.23 808.92 167.75 790.11 201.68 804.17 201.65 846.13 121.23 831.76 121.23"/>
          <path class="cls-2" d="M434.08,121.6c-3.77-2.52-8.23-3.81-12.76-3.71-16.91,0-28.8,12.11-28.8,29.78,0,18.76,14.84,28.47,30.33,28.47,8.52.03,16.88-2.35,24.11-6.87v-75.13h-12.87v27.46ZM418.48,165.45c-4.69,0-9.81-1.96-12.43-4.91v-29.13c3.4-1.98,7.3-2.96,11.24-2.84,8.95,0,16.8,7.09,16.8,17.78,0,11.35-6.11,19.09-15.6,19.09Z"/>
        </g>
        <g>
          <path class="cls-1" d="M496.75,30.16c-8.07,0-14.03,1.92-18.26,3.94l3.46,8.27c2.6-1.06,7.3-2.79,13.55-2.79,8.17,0,10.67,2.88,10.67,7.5v5.67c-3.27-3.08-9.23-4.32-14.13-4.32-11.92,0-19.03,7.4-19.03,15.86s6.73,17.2,22.59,17.2c9.23,0,17.68-3.08,21.43-6.54v-25.47c0-11.73-4.23-19.32-20.28-19.32ZM506.17,69.85c-2.31,1.44-6.44,2.59-10.48,2.59-7.5,0-10.86-3.94-10.86-7.69s3.36-7.5,9.8-7.5c4.71,0,9.42,2.11,11.53,4.13v8.46Z"/>
          <path class="cls-1" d="M598.42,30.16c-7.5,0-13.07,4.04-15.57,6.34V1.23h-11.34v78.81h11.34v-34.31c1.54-2.02,6.44-5.57,11.15-5.57,7.88,0,9.42,5,9.42,13.45v26.43h11.34v-32.39c0-12.21-5.77-17.49-16.34-17.49Z"/>
          <path class="cls-1" d="M638.02,43.52c0-2.88,2.69-4.9,6.34-4.9,5.09,0,9.51,3.84,10.28,4.71l4.23-7.88c-2.11-1.83-7.98-5.48-15.86-5.48-10.57,0-16.91,6.63-16.91,13.94,0,13.45,21.43,14.51,21.43,23.45,0,3.17-2.79,5.57-7.21,5.57-5,0-10.57-3.07-13.45-5.86l-4.23,8.07c3.65,2.98,10,6.34,18.26,6.34,11.05,0,18.16-6.06,18.16-14.7,0-14.8-21.05-15.19-21.05-23.26Z"/>
          <path class="cls-1" d="M464.41,61.77v-14.31c0-12.01-5.66-17.3-15.54-17.3-7.38,0-13.52,4.32-17.36,7.3-1.44-2.88-4.41-7.3-12.08-7.3s-13.04,4.32-15.25,6.44v-5.09h-11.32v48.53h11.32v-34.5c1.63-1.92,6.23-5.38,10.65-5.38,5.18,0,8.15,2.5,8.15,8.65v31.23h11.32v-34.5c2.01-2.31,6.33-5.38,11.22-5.38s7.58,2.88,7.58,9.13v15.2h0s0,0,0,0h0c0,15.55,11.32,15.56,11.32,15.56,0,0,1.06,0,1.38,0,5.51,0,8.69-.95,8.65-.97-5.71-3.87-10.02-10.39-10.02-17.29Z"/>
          <path class="cls-1" d="M554.96,69.31h0c-9.85-1.01-15.24-6.75-15.92-13.05v-16.05h22.93v-10.22h-22.93V0h-12.93v52.67h.03c.36,16.59,12.16,27.33,29.66,27.33,2.62-.02,5.24-.3,7.8-.84-3.69-2.47-6.68-5.86-8.64-9.85Z"/>
        </g>
      </g>
    </g>
  </g>
</svg>