<svg xmlns="http://www.w3.org/2000/svg" width="315" height="315" viewBox="0 0 315 315" fill="none">
  <path d="M284.732 64.5801C267.501 40.9711 243.712 22.407 216.733 11.482C189.762 0.428173 159.754 -2.62361 130.951 2.23648C102.086 7.03858 74.5239 20.2916 52.3675 40.1143C48.7259 43.6149 42.3599 49.581 35.2353 58.5646C28.1599 67.5417 20.1049 79.4245 13.6983 94.2711C10.4853 101.672 7.57457 109.743 5.37543 118.398C3.19558 127.053 1.65017 136.251 0.947127 145.78C-0.4911 164.808 1.48942 185.24 7.62814 204.735C13.6876 224.237 23.8023 242.642 36.5706 258.011C49.2939 273.446 64.6193 285.777 80.1933 294.568C87.9781 298.981 95.8187 302.544 103.421 305.388C111.06 308.145 118.447 310.168 125.357 311.672C139.227 314.517 151.121 315.067 159.795 314.994C161.906 314.912 164.009 314.91 166.105 314.755C185.057 313.873 205.898 308.783 224.142 299.857C242.477 291.065 257.94 278.598 268.672 266.795C278.478 255.887 286.706 243.353 292.954 230.077C291.201 233.004 289.341 235.716 287.592 238.278C285.716 240.763 284.076 243.192 282.289 245.254C290.914 233.184 297.005 219.538 298.581 214.083C301.219 206.667 302.231 201.977 302.64 199.447C303.056 196.913 302.851 196.516 302.261 197.398C301.663 198.279 300.72 200.454 299.554 203.051C298.253 205.604 296.969 208.665 295.428 211.229C293.533 215.039 293.379 214.156 292.997 213.847C292.594 213.52 292.112 213.828 289.051 219.594C292.976 211.061 294.605 206.609 297.278 197.557C297.183 197.25 296.663 198.846 295.949 201.307C295.083 203.719 294.135 207.045 292.916 210.091C292.318 211.618 291.735 213.106 291.216 214.431C290.663 215.741 290.106 216.86 289.694 217.706C288.854 219.392 288.451 219.92 288.861 218.318C292.873 210.226 295.782 200.48 297.919 191.391C297.171 192.882 295.038 200.675 292.421 207.69C289.733 214.682 286.629 220.848 286.546 220.011C287.011 218.847 287.984 216.815 289.182 214.384C290.252 211.901 291.617 209.036 292.693 206.167C294.959 200.463 296.416 194.89 296.129 193.898C296.02 193.507 293.51 202.43 291.868 206.768C296.493 193.245 297.784 182.18 297.889 177.971C297.914 175.849 297.698 175.415 297.196 177.084C296.718 178.755 295.874 182.524 294.221 188.694C295.231 184.379 296.232 179.115 296.96 173.736C297.338 171.049 297.503 168.319 297.758 165.691C297.876 163.051 297.919 160.5 297.949 158.148C297.944 158.163 297.934 158.197 297.927 158.219C297.811 160.564 297.773 163.766 297.475 166.902C297.171 170.037 296.905 173.126 296.562 175.263C297.265 169.992 297.559 164.653 297.666 159.325C297.496 160.169 297.308 161.114 297.108 162.104C297.008 164.086 296.877 166.069 296.637 168.064C296.405 170.059 296.324 172.088 296.002 174.131C296.275 172.395 296.352 170.637 296.506 168.884C296.635 167.129 296.83 165.375 296.838 163.605C296.437 166.23 295.713 169.211 295.158 172.471C293.122 184.82 288.961 195.944 286.756 202.175C277.951 227.493 261.489 250.045 240.22 266.213C218.998 282.466 193.042 292.19 166.534 293.88C166.461 294.323 169.34 294.536 164.931 295.075C163.192 295.244 161.484 295.253 159.814 295.313C158.143 295.377 156.503 295.375 154.885 295.266C153.271 295.178 151.676 295.09 150.092 295.002C148.519 294.817 146.956 294.634 145.391 294.452C143.827 294.299 142.275 294.059 140.719 293.78C139.161 293.526 137.592 293.273 136.003 293.015C132.85 292.358 129.59 291.853 126.197 291.093C125.824 291.243 125.441 291.396 125.059 291.548C114.601 288.797 104.161 284.44 94.2026 278.864C84.8444 274.073 76.1122 268.12 68.143 261.31C60.1695 254.504 52.9227 246.843 46.7282 238.405C46.8354 239 46.7989 239.352 45.5107 237.701C40.2808 230.702 34.1828 220.109 29.7696 208.37C29.0451 206.663 28.3185 204.958 27.7355 203.231C27.1374 201.93 26.7859 201.657 26.5673 201.485C24.7668 196.084 23.6373 191.14 22.6963 186.551C15.7709 156.497 18.6881 123.391 32.9739 94.2346C40.0408 79.665 49.7032 65.9975 61.8264 54.3466C73.913 42.6764 88.3382 32.9197 104.469 26.0258C107.83 24.4387 111.316 23.1501 114.784 21.8057C118.31 20.646 121.823 19.4218 125.415 18.5306C132.563 16.6299 139.823 15.2576 147.029 14.6756C157.695 13.7607 169.989 14.2052 181.9 16.4559C193.832 18.5928 205.343 22.3748 214.825 26.6873C214.334 25.811 216.93 26.3136 220.936 27.6902C224.914 29.1184 230.292 31.4464 235.275 34.1181C245.291 39.3518 253.899 45.6057 250.616 41.2761C256.264 45.8184 262.857 52.0572 267.87 57.4993C272.845 62.9758 276.377 67.4944 277.027 67.7092C277.981 68.0485 279.159 68.8388 280.857 70.2734C281.695 70.9972 282.675 71.8756 283.755 72.9902C284.799 74.1263 285.976 75.4729 287.3 77.0728C292.412 83.5243 299.942 94.2797 306.449 113.359C308.942 120.831 310.83 130.684 311.694 139.326C311.971 141.482 312.119 143.568 312.222 145.526C312.327 147.483 312.5 149.302 312.534 150.943C312.603 154.224 312.689 156.763 312.828 158.146C312.995 160.203 313.173 160.032 313.353 158.743C313.531 157.452 313.634 154.841 313.758 152.291C313.964 147.163 313.782 141.989 314.5 146.364C312.599 116.83 302.053 88.1181 284.732 64.5801Z" fill="#0262C2"/>
</svg>