<svg xmlns="http://www.w3.org/2000/svg" width="385" height="20" style="max-width:100%" view-box="0 0 385 20" fill="none">
  <path fill-rule="evenodd" clip-rule="evenodd" d="M219.686 0.430581C215.756 0.999688 211.983 2.31742 205.09 5.49171C198.26 8.63604 193.831 10.1036 190.525 10.3431C187.157 10.6125 186.034 10.0737 182.011 6.38989C177.114 1.89787 174.276 0.819592 169.286 1.4786C165.263 2.01774 162.238 3.12569 152.382 7.73759C147.142 10.1633 142.121 12.3795 141.185 12.6489C137.193 13.7868 134.542 12.9782 127.587 8.66572C119.136 3.39511 116.641 2.55657 111.307 3.18532C107.222 3.69449 104.664 4.56299 96.8362 8.18652C86.7314 12.8584 83.1136 13.9064 79.8387 12.9779C78.2792 12.5587 77.7491 12.1993 75.6907 10.0731C70.1079 4.38317 68.9542 3.36483 66.9267 2.40643C63.9328 0.998797 61.4064 0.729392 53.2042 0.939172C44.6585 1.17862 42.4442 1.47831 31.4349 4.11347C23.3261 6.05994 20.5504 6.62904 8.19984 9.11466C2.58606 10.2226 1.46336 10.7618 0.496525 12.7082C-0.844441 15.3437 0.621319 18.4281 3.80249 19.5963C6.01684 20.4048 10.7886 20.0155 19.9891 18.2785C29.3767 16.4816 30.2187 16.2721 37.7662 14.0259C41.0408 13.0376 45.1888 11.8997 46.998 11.4804C51.0212 10.552 60.9391 8.93484 62.4984 8.93484C64.432 8.96481 66.0226 9.92322 69.7965 13.3073C71.7926 15.1042 74.1628 16.9908 75.0673 17.5299C77.4999 18.9076 80.2755 19.5363 83.145 19.3268C87.1371 18.9975 90.1935 18.0091 98.4271 14.3256C104.509 11.6003 108.345 10.2828 111.432 9.89354C115.206 9.38438 115.674 9.56419 123.845 14.5654C131.174 19.0574 134.886 20.3152 139.782 19.9259C142.964 19.6565 146.456 18.3687 155.813 14.0262C165.014 9.7437 167.852 8.66573 170.627 8.42598C173.216 8.18653 174.152 8.66543 178.112 12.2293C182.822 16.4819 185.535 17.5599 190.899 17.2305C195.141 16.9611 200.724 15.2241 208.365 11.7801C213.573 9.41434 216.848 8.3061 219.374 8.03668C223.335 7.61742 223.522 7.67736 227.452 11.5107C231.257 15.2241 233.315 16.6917 236.122 17.6797C237.744 18.2788 238.586 18.3684 242.204 18.3385C245.884 18.3385 246.789 18.2186 249.222 17.4999C253.276 16.3021 256.208 15.0143 260.449 12.5287C267.186 8.60548 267.498 8.60548 271.365 12.3489C274.702 15.5831 276.854 16.7513 280.721 17.4999C285.275 18.3385 288.081 17.8593 302.584 13.7565C310.381 11.5703 315.527 10.4923 320.673 9.95318L322.575 9.77337L324.758 11.6899C328.688 15.1339 331.682 16.2119 338.263 16.5412C344.843 16.8706 346.777 16.4813 356.976 12.7379C359.533 11.7795 362.714 10.8511 364.18 10.6116C366.675 10.1923 367.049 10.1923 369.669 10.7315C375.314 11.8694 378.059 11.8095 382.955 10.4021C385.856 9.59356 385.7 9.11436 382.3 8.51528C380.803 8.27583 377.31 7.34741 374.597 6.50888L369.607 4.98166L365.085 5.10153L360.563 5.2214L354.949 7.10795C351.861 8.12629 348.368 9.23424 347.183 9.56359C343.16 10.6119 336.766 10.0728 333.149 8.36574C332.088 7.88654 330.155 6.53884 328.813 5.37096C327.472 4.23304 325.85 3.09482 325.227 2.88534C323.636 2.3462 317.336 2.46607 313.095 3.09482C308.666 3.75354 305.672 4.41255 298.343 6.41896C289.672 8.7847 287.552 9.23393 285.088 9.23393C281.626 9.23393 280.909 8.90458 277.509 5.84986C275.794 4.32236 273.673 2.67557 272.738 2.19637C271.147 1.35784 270.835 1.2979 267.779 1.32787C263.943 1.32787 262.882 1.65723 257.642 4.4722C252.029 7.49695 250.032 8.36544 246.914 9.14403C241.3 10.5217 238.649 9.77308 233.784 5.49054C230.072 2.19637 228.201 0.998507 225.831 0.399431C223.678 -0.138223 223.304 -0.138229 219.686 0.430581Z" fill="#0262C2" />
</svg>