<?xml version="1.0" encoding="UTF-8"?>
<svg id="Layer_2" xmlns="http://www.w3.org/2000/svg" viewBox="0 0 848.47 201.01">
  <defs>
    <style>
      .cls-1 {
        fill: #fff;
        stroke-width: 0px;
      }
    </style>
  </defs>
  <g id="Layer_1-2" >
    <g>
      <path class="cls-1" d="M148.63,137.76v-29.73c0-24.96-11.75-35.94-32.28-35.94-15.34,0-28.09,8.99-36.06,15.17-2.99-5.99-9.17-15.17-25.1-15.17s-27.1,8.99-31.68,13.38v-10.58H0v100.83h23.51v-71.68c3.39-3.99,12.95-11.18,22.12-11.18,10.76,0,16.94,5.19,16.94,17.97v64.89h23.51v-71.68c4.18-4.79,13.15-11.18,23.31-11.18s15.74,5.99,15.74,18.97v31.57s0,0,0,0c0,0,0,0,0,0h0c0,32.31,23.51,32.32,23.51,32.32,0,0,2.21-.02,2.86-.02,11.46,0,18.05-1.97,17.97-2.02-11.86-8.03-20.82-21.59-20.82-35.92Z"/>
      <path class="cls-1" d="M237.27,78.22c-6.76-4.51-14.75-6.84-22.88-6.65-30.31,0-51.63,21.71-51.63,53.39,0,33.63,26.6,51.04,54.36,51.04,15.28.06,30.27-4.21,43.22-12.32V29h-23.08v49.22ZM209.31,156.83c-8.41,0-17.59-3.52-22.29-8.8v-52.22c6.1-3.55,13.08-5.31,20.14-5.08,16.04,0,30.12,12.71,30.12,31.88,0,20.34-10.95,34.23-27.97,34.23Z"/>
      <path class="cls-1" d="M521.22,74.69v-25.38c0-11.69-4.21-19.25-20.21-19.25-8.05,0-13.98,1.92-18.2,3.93l3.45,8.24c2.59-1.05,7.28-2.78,13.51-2.78,8.14,0,10.63,2.87,10.63,7.47v5.65c-3.26-3.07-9.2-4.31-14.08-4.31-11.88,0-18.97,7.37-18.97,15.8s6.7,17.15,22.51,17.15c9.2,0,17.62-3.07,21.36-6.51ZM489.13,64.54c0-3.74,3.35-7.47,9.77-7.47,4.69,0,9.39,2.11,11.49,4.12v8.43c-2.3,1.44-6.42,2.59-10.44,2.59-7.47,0-10.82-3.93-10.82-7.66Z"/>
      <path class="cls-1" d="M607.32,53.43v26.34h11.3v-32.28c0-12.16-5.75-17.43-16.28-17.43-7.47,0-13.03,4.02-15.52,6.32V1.22h-11.3v78.54h11.3v-34.2c1.53-2.01,6.42-5.56,11.11-5.56,7.85,0,9.39,4.98,9.39,13.41Z"/>
      <path class="cls-1" d="M662.78,66.55c0-14.75-20.98-15.13-20.98-23.18,0-2.87,2.68-4.88,6.32-4.88,5.08,0,9.48,3.83,10.25,4.69l4.21-7.85c-2.11-1.82-7.95-5.46-15.8-5.46-10.54,0-16.86,6.61-16.86,13.89,0,13.41,21.36,14.46,21.36,23.37,0,3.16-2.78,5.56-7.18,5.56-4.98,0-10.54-3.06-13.41-5.84l-4.21,8.05c3.64,2.97,9.96,6.32,18.2,6.32,11.02,0,18.1-6.03,18.1-14.66Z"/>
      <path class="cls-1" d="M470.15,79.76c5.5,0,8.66-.94,8.62-.97-5.69-3.85-9.99-10.36-9.99-17.23v-14.26c0-11.97-5.64-17.24-15.48-17.24-7.36,0-13.48,4.31-17.3,7.28-1.43-2.87-4.4-7.28-12.04-7.28s-13,4.31-15.2,6.42v-5.08h-11.28v48.37h11.28v-34.39c1.62-1.92,6.21-5.36,10.61-5.36,5.16,0,8.12,2.49,8.12,8.62v31.13h11.28v-34.39c2.01-2.3,6.31-5.36,11.18-5.36s7.55,2.87,7.55,9.1v15.14h0s0,0,0,0h0c0,15.5,11.28,15.5,11.28,15.5,0,0,1.06,0,1.37,0Z"/>
      <path class="cls-1" d="M559.86,79.73c2.61-.02,5.22-.3,7.78-.84-3.68-2.46-6.65-5.84-8.61-9.82h0c-9.81-1-15.19-6.73-15.87-13v-16h22.86v-10.18h-22.86V0h-12.89v52.49h.03c.36,16.54,12.11,27.24,29.56,27.24Z"/>
      <path class="cls-1" d="M471.88,95.93c-.2,0-.4,0-.6,0-4.22.19-7.49,3.76-7.3,7.98h.01c0,.11,0,.22,0,.32.09,4.38,3.71,7.86,8.1,7.77,4.38-.09,7.86-3.71,7.77-8.1.01-.25.01-.51,0-.76-.21-4.2-3.79-7.43-7.99-7.22Z"/>
      <rect class="cls-1" x="465.66" y="121.04" width="12.4" height="53.07"/>
      <path class="cls-1" d="M505.62,129.23v-8.2h-12.41v53.07h12.41v-29.52c0-6.62,3.47-13.34,9.45-13.34,2.56.06,5.03.94,7.04,2.52l4.52-11.56c-2.84-1.76-6.12-2.67-9.46-2.63-6.2,0-10.4,7.15-11.56,9.66Z"/>
      <path class="cls-1" d="M558.04,119.57c-16.61,0-27.74,11.98-27.74,28.37s11.77,27.74,29.32,27.74c8.03.2,15.9-2.28,22.38-7.04l-3.89-8.83c-4.67,3.67-10.45,5.64-16.39,5.57-11.67,0-17.86-6.3-18.6-13.14h40.79v-5.15c0-14.7-8.62-27.53-25.85-27.53ZM543.22,142.27c.65-7.51,7.07-13.2,14.6-12.93.18,0,.36,0,.53,0,7.05.09,12.69,5.88,12.6,12.93h-27.74Z"/>
      <path class="cls-1" d="M621.7,165.51c-.27,0-.54-.02-.8-.03-9.2-.59-16.18-8.53-15.59-17.74,0-11.46,7.88-17.77,16.39-17.77,4.76.12,9.31,1.95,12.83,5.15l4.73-9.35c-5.15-4.04-11.52-6.23-18.07-6.2-15.3-.21-27.95,11.88-28.43,27.18-.49,15.49,11.68,28.45,27.17,28.93,7.72.36,15.25-2.41,20.91-7.67l-3.99-8.59c-3.98,4.05-9.46,6.26-15.14,6.09Z"/>
      <path class="cls-1" d="M715.23,119.58c-15.49-.35-28.34,11.93-28.68,27.43-.35,15.49,11.93,28.34,27.43,28.68.21,0,.42,0,.64,0,15.47.02,28.03-12.51,28.05-27.98.05-15.29-12.15-27.8-27.43-28.14ZM729.53,147.73c0,10.82-6.2,17.66-15.66,17.66-.06,0-.11,0-.17,0-9.07-.51-16.01-8.29-15.49-17.36,0-10.92,6.83-18.07,15.97-18.07,8.41,0,15.34,7.16,15.34,17.77h0Z"/>
      <path class="cls-1" d="M766.72,129.23v-8.2h-12.41v53.07h12.41v-29.52c0-6.62,3.47-13.34,9.45-13.34,2.56.06,5.03.94,7.04,2.52l4.52-11.56c-2.84-1.76-6.12-2.67-9.46-2.63-6.2,0-10.4,7.15-11.56,9.66Z"/>
      <polygon class="cls-1" points="834.18 121.03 818.52 154.56 802.87 121.03 789.1 121.03 811.48 167.28 792.78 201.01 806.75 200.99 848.47 121.03 834.18 121.03"/>
      <path class="cls-1" d="M438.8,121.39c-3.75-2.5-8.18-3.79-12.69-3.69-16.81,0-28.63,12.04-28.63,29.61,0,18.65,14.75,28.31,30.15,28.31,8.48.03,16.79-2.33,23.97-6.83v-74.7h-12.8v27.3ZM423.29,164.99c-4.66,0-9.76-1.95-12.36-4.88v-28.96c3.38-1.97,7.26-2.95,11.17-2.82,8.89,0,16.7,7.05,16.7,17.68,0,11.28-6.07,18.98-15.51,18.98Z"/>
      <path class="cls-1" d="M678.01,165.05h0c-9.8-1-15.17-6.72-15.84-12.98v-15.98h19.84v-10.17h-19.84v-29.85h-12.87v52.41h.03c.36,16.51,12.1,27.2,29.51,27.2,2.61-.02,5.21-.3,7.77-.84-3.68-2.46-6.64-5.84-8.6-9.8Z"/>
      <rect class="cls-1" x="322.53" y=".44" width="12.53" height="200.57"/>
    </g>
  </g>
</svg>