<?xml version="1.0" encoding="UTF-8"?>
<svg id="Layer_2" xmlns="http://www.w3.org/2000/svg" viewBox="0 0 375.47 212">
  <defs>
    <style>
      .cls-1 {
        fill: #fff;
        stroke-width: 0px;
      }
    </style>
  </defs>
  <g id="Layer_1-2">
    <g>
      <path class="cls-1" d="M214.36,156.85v-42.88c0-35.99-16.95-51.83-46.55-51.83-22.13,0-40.52,12.96-52.01,21.88-4.31-8.64-13.22-21.88-36.21-21.88s-39.08,12.96-45.69,19.29v-15.26H0v145.42h33.91v-103.38c4.88-5.76,18.68-16.13,31.9-16.13,15.52,0,24.42,7.49,24.42,25.92v93.59h33.91v-103.38c6.03-6.91,18.96-16.13,33.62-16.13s22.7,8.64,22.7,27.36v45.53s0,0,0,.01c0,0,0,0,0,0h0c0,46.6,33.91,46.61,33.91,46.61,0,0,3.18-.03,4.12-.03,16.52,0,26.03-2.84,25.91-2.92-17.11-11.59-30.03-31.13-30.03-51.8Z"/>
      <path class="cls-1" d="M342.19,0v70.98c-9.75-6.51-21.27-9.86-33-9.59-43.72,0-74.46,31.31-74.46,77,0,48.5,38.36,73.61,78.4,73.61,22.04.09,43.65-6.07,62.33-17.76V0h-33.28ZM301.86,184.35c-12.13,0-25.37-5.07-32.15-12.69v-75.31c8.8-5.12,18.87-7.66,29.05-7.33,23.13,0,43.43,18.33,43.43,45.97,0,29.34-15.8,49.36-40.33,49.36Z"/>
    </g>
  </g>
</svg>